<svg width="80" height="31" viewBox="0 0 80 31" fill="none" xmlns="http://www.w3.org/2000/svg">
<rect width="80" height="31" fill="#1E1E1E"/>
<rect width="1600" height="6760" transform="translate(-115 -6606)" fill="white"/>
<ellipse cx="64.3241" cy="15.5" rx="15.6757" ry="15.5" fill="#4A4A4A"/>
<ellipse cx="43.7857" cy="20.8456" rx="1.62163" ry="1.60345" fill="#4A4A4A"/>
<path fill-rule="evenodd" clip-rule="evenodd" d="M40.2768 8.89928H36.5706V16.7344L30.971 8.81055H27.543V22.4487H31.2581L31.2133 15.0662L36.8578 22.5552H40.2768V8.89928ZM8.08573 15.5356L13.461 22.4479H8.79466L4.79234 16.9287H4.64875V22.4479H0.933594V8.89844H4.64875V14.5418H4.74747L8.52544 8.89844H12.8149L8.08573 15.5356ZM19.8507 22.7851C16.2791 22.7851 13.8203 20.4692 13.8203 17.1239V8.89844H17.5355V17.1328C17.5355 18.5082 18.4957 19.4576 19.8507 19.4576C21.2147 19.4576 22.1749 18.5082 22.1749 17.1417V8.89844H25.8901V17.1239C25.8901 20.4692 23.4313 22.7851 19.8507 22.7851Z" fill="#4A4A4A"/>
<path fill-rule="evenodd" clip-rule="evenodd" d="M52.6797 17.1239C52.6797 20.4692 55.1385 22.7851 58.7101 22.7851C62.2906 22.7851 64.7495 20.4692 64.7495 17.1239V8.89844H61.0343V17.1417C61.0343 18.5082 60.0741 19.4576 58.7101 19.4576C57.355 19.4576 56.3948 18.5082 56.3948 17.1328V8.89844H52.6797V17.1239ZM71.2944 12.1638L65.5781 22.4479H76.9839V19.1737H71.6983L77.3877 8.89844H66.655V12.1638H71.2944Z" fill="white"/>
</svg>
